<?xml version="1.0" encoding="utf-8"?>
<!-- Generator: Adobe Illustrator 25.3.1, SVG Export Plug-In . SVG Version: 6.00 Build 0)  -->
<svg version="1.1" id="Ebene_1" xmlns="http://www.w3.org/2000/svg" xmlns:xlink="http://www.w3.org/1999/xlink" x="0px" y="0px"
	 viewBox="0 0 572 572" style="enable-background:new 0 0 572 572;" xml:space="preserve">
<style type="text/css">
	.st0{fill:#EEECC1;}
</style>
<path class="st0" d="M159.3,277.2c-2.3,2.4-3.6,5.5-3.6,8.9c0,3.3,1.3,6.5,3.6,8.9l115.4,115.4c2.4,2.3,5.5,3.6,8.9,3.6
	c3.3,0,6.5-1.3,8.9-3.6c2.3-2.3,3.6-5.5,3.6-8.8s-1.3-6.5-3.6-8.8l-94.2-94.2h250.1c6.9,0,12.5-5.6,12.5-12.5s-5.6-12.5-12.5-12.5
	H198l94.2-94.2c4.9-4.9,4.9-12.7,0-17.6c-4.9-4.9-12.7-4.9-17.6,0L159.3,277.2z"/>
<path class="st0" d="M96.5,96.5C-8.2,201.2-8.2,371,96.5,475.6c104.7,104.7,274.4,104.7,379.1,0c76.7-76.7,99.7-192,58.2-292.2
	S394.6,17.9,286.1,17.9C215,17.8,146.7,46.1,96.5,96.5z M42.9,286.1C42.9,152,152,42.9,286.1,42.9S529.3,152,529.3,286.1
	S420.2,529.3,286.1,529.3S42.9,420.1,42.9,286.1z"/>
</svg>
