<?xml version="1.0" encoding="utf-8"?>
<!-- Generator: Adobe Illustrator 25.3.1, SVG Export Plug-In . SVG Version: 6.00 Build 0)  -->
<svg version="1.1" id="Ebene_1" xmlns="http://www.w3.org/2000/svg" xmlns:xlink="http://www.w3.org/1999/xlink" x="0px" y="0px"
	 viewBox="0 0 1000 1000" style="enable-background:new 0 0 1000 1000;" xml:space="preserve">
<style type="text/css">
	.st0{fill:#EEECC1;}
</style>
<path class="st0" d="M500,0C223.9,0,0,223.9,0,500s223.9,500,500,500s500-223.9,500-500S776.2,0,500,0z M421.7,654
	c0,31-25.1,56.1-56.1,56.1s-56-25.1-56-56.1V344.2c0-30.9,25.1-56,56-56s56.1,25.1,56.1,56V654z M682.1,654
	c0,31-25.2,56.1-56.1,56.1S570,685,570,654V344.2c0-30.9,25.1-56,56-56s56.1,25.1,56.1,56V654z"/>
</svg>
